<?xml version="1.0" encoding="UTF-8" standalone="no"?>
<!-- Created with Inkscape (http://www.inkscape.org/) -->

<svg
   width="1920"
   height="1080"
   viewBox="0 0 507.99999 285.75"
   version="1.1"
   id="svg1"
   xml:space="preserve"
   inkscape:export-filename="Arte-Rafael.png"
   inkscape:export-xdpi="96"
   inkscape:export-ydpi="96"
   inkscape:version="1.3 (0e150ed6c4, 2023-07-21)"
   sodipodi:docname="logo-rafox.svg"
   xmlns:inkscape="http://www.inkscape.org/namespaces/inkscape"
   xmlns:sodipodi="http://sodipodi.sourceforge.net/DTD/sodipodi-0.dtd"
   xmlns="http://www.w3.org/2000/svg"
   xmlns:svg="http://www.w3.org/2000/svg"><sodipodi:namedview
     id="namedview1"
     pagecolor="#505050"
     bordercolor="#eeeeee"
     borderopacity="1"
     inkscape:showpageshadow="0"
     inkscape:pageopacity="0"
     inkscape:pagecheckerboard="0"
     inkscape:deskcolor="#505050"
     inkscape:document-units="mm"
     showguides="true"
     inkscape:zoom="0.45299028"
     inkscape:cx="865.36073"
     inkscape:cy="504.42583"
     inkscape:window-width="1920"
     inkscape:window-height="991"
     inkscape:window-x="-9"
     inkscape:window-y="-9"
     inkscape:window-maximized="1"
     inkscape:current-layer="layer1" /><defs
     id="defs1" /><g
     inkscape:label="Camada 1"
     inkscape:groupmode="layer"
     id="layer1"><g
       id="g116"
       transform="translate(41.129836,17.009346)"><path
         d="m 204.98749,135.62686 c 2.51789,0.22766 5.04855,0.45114 7.48171,0.70539 3.44489,0.35995 6.78511,0.75376 9.96477,1.20354 1.58983,0.22489 3.13953,0.46396 4.64209,0.71934 1.50256,0.25537 2.95812,0.52734 4.35943,0.81855 1.4013,0.29121 2.74881,0.6014 4.03489,0.93379 1.28608,0.3324 2.51112,0.68716 3.66799,1.06609 1.15688,0.37893 2.24554,0.78202 3.25924,1.21285 1.01369,0.43082 1.95207,0.88911 2.80861,1.37717 0.85654,0.48807 1.63125,1.00636 2.31666,1.55701 0.3427,0.27533 0.66285,0.55862 0.96014,0.8506 0.2973,0.29198 0.57151,0.59245 0.82166,0.90175 0.25015,0.3093 0.47623,0.62717 0.67748,0.95446 0.20125,0.3273 0.37753,0.66381 0.52813,1.00976 0.1506,0.34595 0.27593,0.70133 0.37414,1.0666 0.0982,0.36528 0.16935,0.74076 0.21342,1.12603 0.0582,0.50842 0.0403,1.18249 -0.0362,2.0004 -0.0765,0.81791 -0.2111,1.77945 -0.38654,2.86236 -0.35088,2.1658 -0.86439,4.81695 -1.39733,7.77575 -0.26647,1.4794 -0.53781,3.03585 -0.79634,4.64674 -0.25852,1.6109 -0.50388,3.27649 -0.71882,4.97438 -0.21493,1.69789 -0.39966,3.42829 -0.53536,5.16867 -0.1357,1.74039 -0.22257,3.49076 -0.2434,5.22914 -0.0104,0.86919 -0.004,1.73536 0.0207,2.59571 0.025,0.86035 0.069,1.71514 0.13384,2.56108 0.0649,0.84594 0.15078,1.68292 0.25994,2.50889 0.10915,0.82598 0.24153,1.64076 0.39945,2.4412 0.15793,0.80044 0.34128,1.58658 0.55243,2.35593 0.21114,0.76934 0.44999,1.52195 0.71881,2.25464 0.26883,0.73269 0.5677,1.44532 0.89866,2.13579 0.33095,0.69047 0.69386,1.35874 1.0914,2.00142 0.39755,0.64269 0.82953,1.26016 1.29812,1.8495 0.46858,0.58935 0.97365,1.1506 1.51773,1.68104 0.54409,0.53044 1.12728,1.03006 1.75132,1.49603 0.62403,0.46597 1.28885,0.89804 1.99729,1.29398 0.70845,0.39594 1.46044,0.75556 2.25774,1.0759 0.79731,0.32035 1.63997,0.60159 2.5306,0.84078 0.89063,0.23918 1.829,0.43664 2.8174,0.58911 0.9884,0.15247 2.02701,0.25969 3.11764,0.31988 0.82531,0.0455 7.11164,0.22636 13.05398,0.38189 5.94234,0.15552 11.54099,0.28599 10.98951,0.23099 -1.71343,-0.55178 -3.34863,-1.11149 -4.90823,-1.67897 -1.55959,-0.56747 -3.04385,-1.14286 -4.45605,-1.72599 -1.41221,-0.58313 -2.75226,-1.17377 -4.02353,-1.7725 -1.27127,-0.59873 -2.47385,-1.20525 -3.61063,-1.81953 -1.13679,-0.61428 -2.2076,-1.23625 -3.21635,-1.86604 -1.00874,-0.62979 -1.95555,-1.2673 -2.84272,-1.91254 -0.88716,-0.64524 -1.71515,-1.29841 -2.48718,-1.95905 -0.77203,-0.66065 -1.48795,-1.32904 -2.15129,-2.00505 -0.66335,-0.67601 -1.27392,-1.35973 -1.83503,-2.05104 -0.56111,-0.69131 -1.07257,-1.39046 -1.53789,-2.09703 -0.46533,-0.70657 -0.8844,-1.42072 -1.26039,-2.1425 -0.376,-0.72178 -0.7089,-1.45105 -1.00201,-2.18798 -0.29311,-0.73694 -0.54658,-1.48141 -0.76326,-2.23346 -0.21668,-0.75204 -0.39694,-1.51182 -0.54363,-2.27893 -0.1467,-0.7671 -0.25997,-1.54125 -0.34314,-2.32337 -0.0832,-0.78212 -0.13617,-1.57177 -0.16226,-2.36885 -0.0261,-0.79708 -0.0251,-1.60181 -5.2e-4,-2.4138 0.0246,-0.812 0.0729,-1.6314 0.1416,-2.45825 0.13745,-1.65371 0.35653,-3.33696 0.632,-5.04982 0.27547,-1.71287 0.60705,-3.45545 0.96893,-5.22707 0.36188,-1.77163 0.75415,-3.57227 1.15084,-5.40226 0.39669,-1.82999 0.79781,-3.68948 1.1777,-5.57744 0.3799,-1.88795 0.73857,-3.8045 1.05007,-5.75003 0.3115,-1.94554 0.57589,-3.91992 0.76739,-5.92264 0.0958,-1.00136 0.17337,-2.00956 0.22945,-3.02514 0.0561,-1.01558 0.0908,-2.03828 0.10077,-3.06803 -0.29368,-0.0309 -2.11557,0.0531 -5.13199,0.16847 -3.01642,0.11538 -7.22772,0.2621 -12.30054,0.35553 -2.53641,0.0467 -5.28788,0.0802 -8.21345,0.0899 -2.92558,0.01 -6.02485,-0.005 -9.25629,-0.0532 -3.23144,-0.0484 -6.59498,-0.13089 -10.049,-0.25838 -3.45401,-0.12749 -6.99881,-0.29999 -10.59211,-0.52762 -0.96865,-0.0614 -1.95926,-0.1619 -2.93419,-0.23151 z"
         style="fill:#0f2e74;fill-rule:evenodd;stroke-width:0.901061;stroke-linecap:round;stroke-linejoin:round;paint-order:markers fill stroke"
         id="path116" /><path
         d="m 191.08291,134.41919 c 1.15124,0.0976 2.29187,0.19485 3.44268,0.29145 -1.15189,-0.11979 -2.29826,-0.26213 -3.44836,-0.39584 0.002,0.0347 0.004,0.0697 0.006,0.10439 z"
         style="fill:#0f2e74;fill-rule:evenodd;stroke-width:0.440277;stroke-linecap:round;stroke-linejoin:round;paint-order:markers fill stroke"
         id="path115" /><path
         d="m 191.08291,134.41919 c -0.002,-0.0346 -0.004,-0.0697 -0.006,-0.10439 -1.65699,-0.19264 -3.32153,-0.34678 -4.96818,-0.56999 -1.81099,-0.2455 -3.61318,-0.51032 -5.40173,-0.7953 -1.78855,-0.28499 -3.56336,-0.59015 -5.31906,-0.91726 -1.75569,-0.32711 -3.49242,-0.67614 -5.20485,-1.048 -1.71243,-0.37186 -3.40037,-0.76673 -5.05912,-1.18597 -1.65875,-0.41924 -3.28825,-0.86245 -4.88291,-1.3317 -1.59466,-0.46925 -3.15449,-0.96433 -4.67465,-1.48622 -1.52016,-0.52189 -3.00066,-1.0708 -4.4359,-1.64796 -1.43525,-0.57715 -2.8252,-1.18241 -4.16512,-1.81746 -1.33993,-0.63505 -2.62966,-1.29965 -3.86385,-1.99523 -1.23419,-0.69557 -2.41301,-1.42253 -3.53105,-2.18126 -1.11804,-0.75873 -2.17525,-1.5495 -3.16673,-2.37401 -0.99148,-0.82452 -1.91742,-1.68263 -2.77193,-2.57556 -0.0132,0.45412 0.002,0.89715 0.045,1.32912 0.0428,0.43197 0.11287,0.853 0.20981,1.26349 0.0969,0.41049 0.22063,0.81024 0.37,1.19993 0.14937,0.38968 0.32446,0.7694 0.52452,1.13895 0.20006,0.36954 0.42537,0.72893 0.67437,1.079 0.249,0.35007 0.52185,0.69089 0.81804,1.02216 0.2962,0.33126 0.61541,0.65322 0.95705,0.96635 0.34164,0.31313 0.70555,0.61745 1.09089,0.91312 0.77068,0.59133 1.62713,1.14832 2.56212,1.6738 0.93499,0.52549 1.94859,1.01916 3.03392,1.48415 1.08533,0.46499 2.2427,0.90118 3.46439,1.31103 1.22168,0.40984 2.50789,0.79336 3.85196,1.15342 1.34407,0.36005 2.74572,0.69673 4.19819,1.01234 1.45247,0.31561 2.95567,0.61024 4.50257,0.88677 1.5469,0.27652 3.13773,0.53494 4.76508,0.77773 1.62735,0.24278 3.29141,0.46979 4.98523,0.68419 3.38765,0.4288 6.89428,0.80657 10.46396,1.15394 3.56968,0.34737 7.20233,0.66431 10.84223,0.97306 0.0306,0.003 0.0609,0.005 0.0915,0.008 z"
         style="fill:#0f2e74;fill-rule:evenodd;stroke-width:0.901061;stroke-linecap:round;stroke-linejoin:round;paint-order:markers fill stroke"
         id="path114" /><path
         d="m 199.13978,135.16488 c -0.70414,-0.0625 -1.39774,-0.0985 -2.10271,-0.16589 -0.83868,-0.0802 -1.67254,-0.20111 -2.51148,-0.28835 -1.15081,-0.0966 -2.29144,-0.19385 -3.44268,-0.29145 0.0417,0.74497 0.0964,1.50899 0.13074,2.24482 0.89749,19.24171 0.26729,58.44689 -17.78319,76.03454 l 27.28235,0.10335 c -2.44421,-9.97099 -1.56998,-21.75729 -1.53592,-32.19269 0.80668,-15.13381 0.35381,-30.30179 -0.0372,-45.44433 z"
         style="fill:#0f2e74;fill-rule:evenodd;stroke-width:0.440277;stroke-linecap:round;stroke-linejoin:round;paint-order:markers fill stroke"
         id="path113"
         sodipodi:nodetypes="cscccccscc" /><path
         d="m 199.13823,135.10131 c -1.5337,-0.13045 -3.07073,-0.26125 -4.61264,-0.39067 0.83894,0.0872 1.6728,0.2082 2.51148,0.28835 0.70497,0.0674 1.39857,0.10335 2.10271,0.16589 -5.3e-4,-0.0208 -0.001,-0.0428 -0.002,-0.0636 z"
         style="fill:#0f2e74;fill-rule:evenodd;stroke-width:0.440277;stroke-linecap:round;stroke-linejoin:round;paint-order:markers fill stroke"
         id="path112" /><path
         d="m 199.13823,135.10131 c 5.4e-4,0.0208 0.001,0.0428 0.002,0.0636 1.95825,0.17393 3.9047,0.32326 5.84771,0.46198 -1.04696,-0.0947 -2.05414,-0.20161 -3.11092,-0.29352 -0.90522,-0.0787 -1.82784,-0.15458 -2.73834,-0.23203 z"
         style="fill:#0f2e74;fill-rule:evenodd;stroke-width:0.901061;stroke-linecap:round;stroke-linejoin:round;paint-order:markers fill stroke"
         id="path111" /><path
         d="m 198.34758,110.81494 c -1.52887,-0.51242 -3.07559,-1.05986 -4.58215,-1.5291 -1.73916,-0.40189 -3.43098,-0.74698 -5.10408,-1.07177 0.42045,3.69239 0.84006,7.36299 1.16996,10.63449 0.43601,4.32374 0.78997,8.33344 1.0542,12.17083 0.0771,1.12017 0.13008,2.20109 0.19172,3.29541 1.1501,0.13371 2.29647,0.27605 3.44836,0.39584 1.54191,0.12942 3.07894,0.26022 4.61264,0.39067 -0.054,-2.08786 -0.0763,-4.33429 -0.13746,-6.38772 -0.18238,-6.11979 -0.41848,-12.00287 -0.65319,-17.89865 z"
         style="fill:#0f2e74;fill-rule:evenodd;stroke-width:0.440277;stroke-linecap:round;stroke-linejoin:round;paint-order:markers fill stroke"
         id="path110" /><path
         d="m 198.14243,105.19668 c 0.0777,1.83651 0.13148,3.76762 0.20515,5.61826 1.44281,0.48358 2.86653,0.92983 4.32429,1.44281 3.00247,1.05656 6.03171,2.16647 9.06663,3.29075 3.03491,1.12428 6.07563,2.2634 9.10125,3.37861 3.02562,1.11521 6.03624,2.20661 9.01082,3.23598 2.97458,1.02936 5.913,1.99666 8.79481,2.86339 1.44091,0.43336 2.86789,0.84125 4.27778,1.21956 1.40988,0.37831 2.80284,0.72711 4.17649,1.04076 1.37364,0.31366 2.72802,0.59259 4.06021,0.83199 1.3322,0.23941 2.64241,0.43924 3.92793,0.5948 1.28552,0.15556 2.5465,0.26655 3.78013,0.32866 1.23363,0.0621 2.43979,0.075 3.61632,0.0341 0.24223,0.007 0.49395,-0.009 0.75292,-0.0455 0.25898,-0.0365 0.5254,-0.0936 0.79737,-0.17001 0.54394,-0.15276 1.11018,-0.3819 1.68362,-0.67438 0.57344,-0.29248 1.15408,-0.64836 1.72702,-1.0542 0.57295,-0.40583 1.13806,-0.86161 1.68052,-1.35444 0.54246,-0.49282 1.06211,-1.02269 1.54409,-1.57613 0.48199,-0.55344 0.92623,-1.13055 1.31775,-1.71824 0.39153,-0.58769 0.73042,-1.18623 1.00149,-1.7818 0.27107,-0.59557 0.47418,-1.18819 0.5948,-1.76527 l -5.94848,-4.2292 c -0.12787,0.59839 -0.31493,1.17069 -0.5519,1.71307 -0.23697,0.54238 -0.52399,1.05478 -0.85111,1.53479 -0.32713,0.48002 -0.6946,0.92765 -1.09296,1.33894 -0.39836,0.41129 -0.8273,0.7862 -1.27796,1.12241 -0.45066,0.33622 -0.92311,0.63353 -1.40715,0.88832 -0.48403,0.25479 -0.97997,0.46707 -1.47846,0.63407 -0.49848,0.167 -0.99945,0.28888 -1.49345,0.36174 -0.494,0.0729 -0.981,0.0969 -1.45159,0.0692 -0.45167,0.0401 -1.0348,0.0153 -1.73323,-0.0672 -0.69842,-0.0825 -1.5119,-0.22271 -2.42517,-0.41238 -0.91328,-0.18966 -1.92633,-0.42907 -3.02256,-0.71055 -1.09622,-0.28148 -2.2755,-0.60481 -3.52278,-0.96273 -2.49456,-0.71583 -5.25958,-1.56924 -8.16694,-2.49855 -2.90737,-0.92932 -5.95722,-1.93458 -9.02219,-2.95435 -6.12993,-2.03953 -12.32022,-4.13699 -17.54932,-5.80016 -2.61455,-0.83158 -4.9889,-1.55441 -6.99543,-2.10736 -1.00327,-0.27648 -1.91426,-0.51078 -2.71767,-0.69453 -0.80341,-0.18375 -1.49902,-0.3171 -2.07067,-0.39275 -0.90952,-0.20638 -1.77657,-0.38299 -2.66237,-0.57257 z"
         style="fill:#0f2e74;fill-rule:evenodd;stroke-width:0.832333;stroke-linecap:round;stroke-linejoin:round;paint-order:markers fill stroke"
         id="path109" /><path
         id="path108"
         style="fill:#0f2e74;fill-rule:evenodd;stroke-width:0.832333;stroke-linecap:round;stroke-linejoin:round;paint-order:markers fill stroke"
         d="m 166.40638,101.47908 c -0.93512,0.008 -1.84503,0.029 -2.73007,0.0625 -1.77005,0.0671 -3.44132,0.18361 -5.01881,0.34209 -1.57749,0.15849 -3.06122,0.35875 -4.45658,0.59325 -1.39535,0.2345 -2.70219,0.5033 -3.92585,0.7984 -1.22368,0.2951 -2.36424,0.61674 -3.42667,0.95705 -1.06243,0.34031 -2.04685,0.69908 -2.95847,1.06918 -0.91164,0.37011 -1.75055,0.75135 -2.52181,1.13585 -0.77128,0.3845 -1.47479,0.77251 -2.11615,1.156 -0.64137,0.3835 -1.22063,0.76257 -1.74253,1.12965 -0.52191,0.36708 -0.98652,0.72203 -1.3994,1.0573 -0.82577,0.67054 -1.44418,1.26222 -1.89653,1.71307 -0.45235,0.45085 -0.73875,0.76075 -0.90123,0.86868 0.47828,-0.27673 1.00811,-0.55932 1.58905,-0.84491 0.58093,-0.28558 1.21294,-0.57382 1.89549,-0.86093 0.68255,-0.28709 1.4157,-0.57343 2.19883,-0.85472 0.78313,-0.2813 1.6164,-0.55764 2.49907,-0.82579 0.88267,-0.26816 1.81452,-0.52798 2.7957,-0.77567 0.98117,-0.24768 2.0116,-0.48343 3.09025,-0.70331 1.07865,-0.21989 2.20559,-0.424 3.38067,-0.60875 1.17508,-0.18475 2.39803,-0.35019 3.66851,-0.49248 1.27049,-0.14229 2.5884,-0.26149 3.95325,-0.35398 1.36485,-0.0925 2.7767,-0.1579 4.23488,-0.19327 1.45818,-0.0354 2.96294,-0.0405 4.51342,-0.0114 1.55048,0.0291 3.1466,0.0919 4.78834,0.19275 1.64174,0.10088 3.32923,0.23962 5.06119,0.41962 1.73196,0.17999 3.50876,0.40122 5.32991,0.66766 1.82114,0.26644 3.68622,0.57822 5.59552,0.93844 0.24604,0.0464 0.5075,0.1106 0.75499,0.15865 -0.13523,-1.18762 -0.23206,-2.18092 -0.3762,-3.42047 h 0.003 l -0.15813,-1.48259 c -1.96265,-0.31428 -3.88271,-0.60007 -5.71128,-0.82734 -2.41044,-0.2996 -4.70657,-0.52636 -6.89312,-0.68833 -2.18654,-0.16197 -4.26374,-0.25894 -6.23683,-0.29869 -0.98653,-0.0199 -1.94687,-0.0254 -2.88199,-0.0176 z m 24.75611,2.33267 0.10852,1.01493 5.43171,0.0605 c -0.27927,-0.0578 -0.57474,-0.12681 -0.85163,-0.18294 -1.60263,-0.32487 -3.16487,-0.62167 -4.6886,-0.89245 z" /><path
         d="m 180.20089,89.269486 a 0.66144686,0.46442018 0 0 0 -0.46767,0.13591 0.66144686,0.46442018 0 0 0 -0.19379,0.328662 0.66144686,0.46442018 0 0 0 0.19379,0.328145 0.66144686,0.46442018 0 0 0 0.46767,0.136426 0.66144686,0.46442018 0 0 0 0.66146,-0.464571 0.66144686,0.46442018 0 0 0 -0.0506,-0.177767 0.66144686,0.46442018 0 0 0 -0.14314,-0.150895 0.66144686,0.46442018 0 0 0 -0.21446,-0.100253 0.66144686,0.46442018 0 0 0 -0.25321,-0.03566 z"
         style="fill:#0f2e74;fill-rule:evenodd;stroke-width:0.763323;stroke-linecap:round;stroke-linejoin:round;paint-order:markers fill stroke"
         id="path107" /><path
         d="m 180.20089,89.269486 a 0.66144686,0.46442018 0 0 1 0.25321,0.03566 0.66144686,0.46442018 0 0 1 0.21446,0.100253 0.66144686,0.46442018 0 0 1 0.14314,0.150895 0.66144686,0.46442018 0 0 1 0.0506,0.177767 0.66144686,0.46442018 0 0 1 -0.66146,0.464571 0.66144686,0.46442018 0 0 1 -0.46767,-0.136426 0.66144686,0.46442018 0 0 1 -0.19379,-0.328145 0.66144686,0.46442018 0 0 1 0.19379,-0.328662 0.66144686,0.46442018 0 0 1 0.46767,-0.13591 z"
         style="fill:#0f2e74;fill-rule:evenodd;stroke-width:0.763323;stroke-linecap:round;stroke-linejoin:round;paint-order:markers fill stroke"
         id="path106" /><path
         d="m 174.23381,87.792057 a 0.45034686,0.3870168 0 0 0 -0.45062,0.387057 0.45034686,0.3870168 0 0 0 0.45062,0.387056 0.45034686,0.3870168 0 0 0 0.4501,-0.387056 0.45034686,0.3870168 0 0 0 -0.0341,-0.148312 0.45034686,0.3870168 0 0 0 -0.0977,-0.125573 0.45034686,0.3870168 0 0 0 -0.14625,-0.08372 0.45034686,0.3870168 0 0 0 -0.17208,-0.02946 z"
         style="fill:#0f2e74;fill-rule:evenodd;stroke-width:0.763323;stroke-linecap:round;stroke-linejoin:round;paint-order:markers fill stroke"
         id="path105" /><path
         d="m 174.23381,87.792057 a 0.45034686,0.3870168 0 0 1 0.17208,0.02946 0.45034686,0.3870168 0 0 1 0.14625,0.08372 0.45034686,0.3870168 0 0 1 0.0977,0.125573 0.45034686,0.3870168 0 0 1 0.0341,0.148312 0.45034686,0.3870168 0 0 1 -0.4501,0.387056 0.45034686,0.3870168 0 0 1 -0.45062,-0.387056 0.45034686,0.3870168 0 0 1 0.45062,-0.387057 z"
         style="fill:#0f2e74;fill-rule:evenodd;stroke-width:0.763323;stroke-linecap:round;stroke-linejoin:round;paint-order:markers fill stroke"
         id="path104" /><path
         d="m 177.89302,87.031897 a 0.56293352,0.50664019 0 0 0 -0.56328,0.506946 0.56293352,0.50664019 0 0 0 0.56328,0.506429 0.56293352,0.50664019 0 0 0 0.56275,-0.506429 0.56293352,0.50664019 0 0 0 -0.0429,-0.194304 0.56293352,0.50664019 0 0 0 -0.12195,-0.164331 0.56293352,0.50664019 0 0 0 -0.18294,-0.109554 0.56293352,0.50664019 0 0 0 -0.21497,-0.03876 z"
         style="fill:#0f2e74;fill-rule:evenodd;stroke-width:0.763323;stroke-linecap:round;stroke-linejoin:round;paint-order:markers fill stroke"
         id="path103" /><path
         d="m 177.89302,87.031897 a 0.56293352,0.50664019 0 0 1 0.21497,0.03876 0.56293352,0.50664019 0 0 1 0.18294,0.109554 0.56293352,0.50664019 0 0 1 0.12195,0.164331 0.56293352,0.50664019 0 0 1 0.0429,0.194304 0.56293352,0.50664019 0 0 1 -0.56275,0.506429 0.56293352,0.50664019 0 0 1 -0.56328,-0.506429 0.56293352,0.50664019 0 0 1 0.56328,-0.506946 z"
         style="fill:#0f2e74;fill-rule:evenodd;stroke-width:0.763323;stroke-linecap:round;stroke-linejoin:round;paint-order:markers fill stroke"
         id="path102" /><path
         d="m 182.57904,85.610795 a 0.81625357,0.66144686 0 0 0 -0.57723,0.19327 0.81625357,0.66144686 0 0 0 -0.23874,0.467672 0.81625357,0.66144686 0 0 0 0.23874,0.468188 0.81625357,0.66144686 0 0 0 0.57723,0.19327 0.81625357,0.66144686 0 0 0 0.57722,-0.19327 0.81625357,0.66144686 0 0 0 0.23926,-0.468188 0.81625357,0.66144686 0 0 0 -0.062,-0.252698 0.81625357,0.66144686 0 0 0 -0.17725,-0.214974 0.81625357,0.66144686 0 0 0 -0.26458,-0.143144 0.81625357,0.66144686 0 0 0 -0.31264,-0.05013 z"
         style="fill:#0f2e74;fill-rule:evenodd;stroke-width:0.763323;stroke-linecap:round;stroke-linejoin:round;paint-order:markers fill stroke"
         id="path101" /><path
         d="m 182.57904,85.610795 a 0.81625357,0.66144686 0 0 1 0.31264,0.05013 0.81625357,0.66144686 0 0 1 0.26458,0.143144 0.81625357,0.66144686 0 0 1 0.17725,0.214974 0.81625357,0.66144686 0 0 1 0.062,0.252698 0.81625357,0.66144686 0 0 1 -0.23926,0.468188 0.81625357,0.66144686 0 0 1 -0.57722,0.19327 0.81625357,0.66144686 0 0 1 -0.57723,-0.19327 0.81625357,0.66144686 0 0 1 -0.23874,-0.468188 0.81625357,0.66144686 0 0 1 0.23874,-0.467672 0.81625357,0.66144686 0 0 1 0.57723,-0.19327 z"
         style="fill:#0f2e74;fill-rule:evenodd;stroke-width:0.763323;stroke-linecap:round;stroke-linejoin:round;paint-order:markers fill stroke"
         id="path100" /><path
         d="m 177.37212,84.245504 a 0.57700685,0.5488602 0 0 0 -0.40824,0.160713 0.57700685,0.5488602 0 0 0 -0.16899,0.38809 0.57700685,0.5488602 0 0 0 0.16899,0.38809 0.57700685,0.5488602 0 0 0 0.40824,0.160714 0.57700685,0.5488602 0 0 0 0.40773,-0.160714 0.57700685,0.5488602 0 0 0 0.16949,-0.38809 0.57700685,0.5488602 0 0 0 -0.0775,-0.274401 0.57700685,0.5488602 0 0 0 -0.21136,-0.201022 0.57700685,0.5488602 0 0 0 -0.28835,-0.07338 z"
         style="fill:#0f2e74;fill-rule:evenodd;stroke-width:0.763323;stroke-linecap:round;stroke-linejoin:round;paint-order:markers fill stroke"
         id="path99" /><path
         d="m 177.37212,84.245504 a 0.57700685,0.5488602 0 0 1 0.28835,0.07338 0.57700685,0.5488602 0 0 1 0.21136,0.201022 0.57700685,0.5488602 0 0 1 0.0775,0.274401 0.57700685,0.5488602 0 0 1 -0.16949,0.38809 0.57700685,0.5488602 0 0 1 -0.40773,0.160714 0.57700685,0.5488602 0 0 1 -0.40824,-0.160714 0.57700685,0.5488602 0 0 1 -0.16899,-0.38809 0.57700685,0.5488602 0 0 1 0.16899,-0.38809 0.57700685,0.5488602 0 0 1 0.40824,-0.160713 z"
         style="fill:#0f2e74;fill-rule:evenodd;stroke-width:0.763323;stroke-linecap:round;stroke-linejoin:round;paint-order:markers fill stroke"
         id="path98" /><path
         d="m 216.98831,78.700623 c 0.75445,0.290618 1.5194,0.536254 2.28409,0.801501 0.7647,0.265247 1.52941,0.549834 2.2841,0.918807 0.37735,0.184486 0.75188,0.390145 1.12293,0.624768 0.37105,0.234623 0.73849,0.498537 1.10071,0.799434 0.36222,0.300898 0.71935,0.638851 1.07022,1.02216 0.35087,0.383309 0.69551,0.811604 1.03249,1.293461 -1.06405,-0.159864 -2.13506,-0.248926 -3.19825,-0.281636 -1.06319,-0.03271 -2.11847,-0.009 -3.15071,0.05736 -1.03225,0.06638 -2.04153,0.17523 -3.01274,0.312642 -0.97121,0.137412 -1.90425,0.303828 -2.78433,0.484208 -0.88007,0.180381 -1.70714,0.37522 -2.46599,0.570508 -0.75886,0.195288 -1.4497,0.390958 -2.05724,0.573092 -1.21509,0.364267 -2.09769,0.673722 -2.52698,0.817004 0.96061,0.328912 1.89256,0.672779 2.76779,1.044381 0.87523,0.371601 1.69398,0.771292 2.42931,1.212846 0.36766,0.220776 0.71468,0.451671 1.03714,0.695048 0.32247,0.243376 0.62046,0.499044 0.89091,0.768428 0.27044,0.269384 0.51288,0.552828 0.7245,0.851628 0.21162,0.298799 0.3925,0.613022 0.53847,0.944645 -0.80613,-0.164505 -1.55293,-0.296223 -2.24534,-0.399976 -0.69242,-0.103752 -1.33051,-0.179674 -1.91875,-0.232544 -1.17648,-0.105738 -2.1544,-0.119184 -2.97139,-0.08061 -0.817,0.03857 -1.47331,0.129147 -2.00712,0.233061 -0.5338,0.103914 -0.94485,0.220798 -1.27175,0.311092 0.74564,0.04946 1.48156,0.11272 2.20555,0.192753 0.72398,0.08003 1.436,0.177218 2.1332,0.295073 0.6972,0.117854 1.37956,0.256174 2.04484,0.419095 0.66527,0.162922 1.31326,0.350107 1.94148,0.565341 0.62822,0.215234 1.23659,0.458496 1.82263,0.733288 0.58603,0.274792 1.15007,0.581346 1.68878,0.922941 0.53872,0.341596 1.05215,0.718137 1.53841,1.133781 0.48626,0.415645 0.9454,0.870419 1.37408,1.367359 -0.0264,0.07745 -0.008,-0.341386 -0.12196,-1.062468 -0.0567,-0.360541 -0.14632,-0.79678 -0.29094,-1.284159 -0.14462,-0.487379 -0.34408,-1.025948 -0.62063,-1.591634 -0.27655,-0.565687 -0.63008,-1.158434 -1.08262,-1.753898 -0.22627,-0.297732 -0.4775,-0.596375 -0.75603,-0.892452 -0.27853,-0.296077 -0.58457,-0.589627 -0.92087,-0.877983 -0.3363,-0.288356 -0.70268,-0.571375 -1.10226,-0.845943 -0.39958,-0.274569 -0.83234,-0.540586 -1.3007,-0.7953 -0.46836,-0.254715 -0.9725,-0.498293 -1.51515,-0.727088 -0.54266,-0.228794 -1.12369,-0.442946 -1.74615,-0.639754 0.21756,0.0075 0.48885,-0.05062 0.83561,-0.140043 0.34676,-0.08942 0.76859,-0.210016 1.28674,-0.328146 0.51816,-0.118129 1.13274,-0.233518 1.86449,-0.312125 0.73175,-0.07861 1.58078,-0.120614 2.56832,-0.09147 0.98754,0.02915 2.11375,0.129213 3.39927,0.334347 0.64277,0.102567 1.32535,0.231317 2.05052,0.390674 0.72518,0.159357 1.49295,0.349449 2.30581,0.574125 0.81285,0.224676 1.67077,0.483856 2.57658,0.782381 0.90582,0.298525 1.85935,0.63609 2.8634,1.016992 1.00404,0.380903 2.05866,0.805116 3.16621,1.276925 1.10755,0.471809 2.26821,0.991451 3.48454,1.562695 -0.28673,-0.74526 -0.59199,-1.448887 -0.91364,-2.113566 -0.32165,-0.664679 -0.65998,-1.290666 -1.01234,-1.879472 -0.35236,-0.588805 -0.71874,-1.140657 -1.09761,-1.658296 -0.37887,-0.51764 -0.76981,-1.000927 -1.17098,-1.452108 -0.40117,-0.451181 -0.81271,-0.870441 -1.23197,-1.259871 -0.41926,-0.389431 -0.84636,-0.748684 -1.27951,-1.081071 -0.43315,-0.332388 -0.87233,-0.637722 -1.31516,-0.917774 -0.44284,-0.280052 -0.8896,-0.53497 -1.33791,-0.767395 -0.89661,-0.464849 -1.79959,-0.839465 -2.69286,-1.142049 -0.89326,-0.302584 -1.77664,-0.533088 -2.63291,-0.711068 -0.85627,-0.17798 -1.68554,-0.303254 -2.47117,-0.394291 -0.78562,-0.09104 -1.52784,-0.147897 -2.20916,-0.189652 z"
         style="fill:#0f2e74;fill-rule:evenodd;stroke-width:0.763323;stroke-linecap:round;stroke-linejoin:round;paint-order:markers fill stroke"
         id="path97" /><path
         d="m 216.98831,78.700623 c 0.68132,0.04176 1.42354,0.09862 2.20916,0.189652 0.78563,0.09104 1.6149,0.216311 2.47117,0.394291 0.85627,0.17798 1.73965,0.408484 2.63291,0.711068 0.89327,0.302584 1.79625,0.6772 2.69286,1.142049 0.44831,0.232425 0.89507,0.487343 1.33791,0.767395 0.44283,0.280052 0.88201,0.585386 1.31516,0.917774 0.43315,0.332387 0.86025,0.69164 1.27951,1.081071 0.41926,0.38943 0.8308,0.80869 1.23197,1.259871 0.40117,0.451181 0.79211,0.934468 1.17098,1.452108 0.37887,0.517639 0.74525,1.069491 1.09761,1.658296 0.35236,0.588806 0.69069,1.214793 1.01234,1.879472 0.32165,0.664679 0.62691,1.368306 0.91364,2.113566 -1.21633,-0.571244 -2.37699,-1.090886 -3.48454,-1.562695 -1.10755,-0.471809 -2.16217,-0.896022 -3.16621,-1.276925 -1.00405,-0.380902 -1.95758,-0.718467 -2.8634,-1.016992 -0.90581,-0.298525 -1.76373,-0.557705 -2.57658,-0.782381 -0.81286,-0.224676 -1.58063,-0.414768 -2.30581,-0.574125 -0.72517,-0.159357 -1.40775,-0.288107 -2.05052,-0.390674 -1.28552,-0.205134 -2.41173,-0.3052 -3.39927,-0.334347 -0.98754,-0.02915 -1.83657,0.01286 -2.56832,0.09147 -0.73175,0.07861 -1.34633,0.193996 -1.86449,0.312125 -0.51815,0.11813 -0.93998,0.238726 -1.28674,0.328146 -0.34676,0.08942 -0.61805,0.147566 -0.83561,0.140043 0.62246,0.196808 1.20349,0.41096 1.74615,0.639754 0.54265,0.228795 1.04679,0.472373 1.51515,0.727088 0.46836,0.254714 0.90112,0.520731 1.3007,0.7953 0.39958,0.274568 0.76596,0.557587 1.10226,0.845943 0.3363,0.288356 0.64234,0.581906 0.92087,0.877983 0.27853,0.296077 0.52976,0.59472 0.75603,0.892452 0.45254,0.595464 0.80607,1.188211 1.08262,1.753898 0.27655,0.565686 0.47601,1.104255 0.62063,1.591634 0.14462,0.487379 0.23419,0.923618 0.29094,1.284159 0.11351,0.721082 0.0955,1.139916 0.12196,1.062468 -0.42868,-0.49694 -0.88782,-0.951714 -1.37408,-1.367359 -0.48626,-0.415644 -0.99969,-0.792185 -1.53841,-1.133781 -0.53871,-0.341595 -1.10275,-0.648149 -1.68878,-0.922941 -0.58604,-0.274792 -1.19441,-0.518054 -1.82263,-0.733288 -0.62822,-0.215234 -1.27621,-0.402419 -1.94148,-0.565341 -0.66528,-0.162921 -1.34764,-0.301241 -2.04484,-0.419095 -0.6972,-0.117855 -1.40922,-0.21504 -2.1332,-0.295073 -0.72399,-0.08003 -1.45991,-0.143296 -2.20555,-0.192753 0.3269,-0.09029 0.73795,-0.207178 1.27175,-0.311092 0.53381,-0.103914 1.19012,-0.194491 2.00712,-0.233061 0.81699,-0.03857 1.79491,-0.02512 2.97139,0.08061 0.58824,0.05287 1.22633,0.128792 1.91875,0.232544 0.69241,0.103753 1.43921,0.235471 2.24534,0.399976 -0.14597,-0.331623 -0.32685,-0.645846 -0.53847,-0.944645 -0.21162,-0.2988 -0.45406,-0.582244 -0.7245,-0.851628 -0.27045,-0.269384 -0.56844,-0.525052 -0.89091,-0.768428 -0.32246,-0.243377 -0.66948,-0.474272 -1.03714,-0.695048 -0.73533,-0.441554 -1.55408,-0.841245 -2.42931,-1.212846 -0.87523,-0.371602 -1.80718,-0.715469 -2.76779,-1.044381 0.42929,-0.143282 1.31189,-0.452737 2.52698,-0.817004 0.60754,-0.182134 1.29838,-0.377804 2.05724,-0.573092 0.75885,-0.195288 1.58592,-0.390127 2.46599,-0.570508 0.88008,-0.18038 1.81312,-0.346796 2.78433,-0.484208 0.97121,-0.137412 1.98049,-0.246261 3.01274,-0.312642 1.03224,-0.06638 2.08752,-0.09007 3.15071,-0.05736 1.06319,0.03271 2.1342,0.121772 3.19825,0.281636 -0.33698,-0.481857 -0.68162,-0.910152 -1.03249,-1.293461 -0.35087,-0.383309 -0.708,-0.721262 -1.07022,-1.02216 -0.36222,-0.300897 -0.72966,-0.564811 -1.10071,-0.799434 -0.37105,-0.234623 -0.74558,-0.440282 -1.12293,-0.624768 -0.75469,-0.368973 -1.5194,-0.65356 -2.2841,-0.918807 -0.76469,-0.265247 -1.52964,-0.510883 -2.28409,-0.801501 z"
         style="fill:#0f2e74;fill-rule:evenodd;stroke-width:0.763323;stroke-linecap:round;stroke-linejoin:round;paint-order:markers fill stroke"
         id="path96" /><path
         d="m 196.48103,72.56818 c -1.62868,-0.01174 -2.94189,0.0031 -3.5295,0.08062 -0.34819,0.0948 -0.69077,0.264855 -1.01906,0.481107 -0.32829,0.216252 -0.64249,0.479087 -0.93379,0.75861 -0.29131,0.279524 -0.56013,0.575795 -0.79737,0.860413 -0.23724,0.284618 -0.44317,0.557563 -0.60926,0.789099 -0.0478,0.06657 0.26172,0.05923 0.86144,-0.02429 0.59972,-0.08352 1.49013,-0.243223 2.60449,-0.481108 1.11436,-0.237884 2.45244,-0.554312 3.9486,-0.950846 1.49616,-0.396534 3.15017,-0.873522 4.89531,-1.432987 -1.84831,-0.03056 -3.79218,-0.06888 -5.42086,-0.08062 z"
         style="fill:#0f2e74;fill-rule:evenodd;stroke-width:0.763323;stroke-linecap:round;stroke-linejoin:round;paint-order:markers fill stroke"
         id="path95" /><path
         d="m 196.48103,72.56818 c 1.62868,0.01174 3.57255,0.05006 5.42086,0.08062 -1.74514,0.559465 -3.39915,1.036453 -4.89531,1.432987 -1.49616,0.396534 -2.83424,0.712962 -3.9486,0.950846 -1.11436,0.237885 -2.00477,0.397592 -2.60449,0.481108 -0.59972,0.08352 -0.9092,0.09086 -0.86144,0.02429 0.16609,-0.231536 0.37202,-0.504481 0.60926,-0.789099 0.23724,-0.284618 0.50606,-0.580889 0.79737,-0.860413 0.2913,-0.279523 0.6055,-0.542358 0.93379,-0.75861 0.32829,-0.216252 0.67087,-0.386303 1.01906,-0.481107 0.58761,-0.0775 1.90082,-0.09235 3.5295,-0.08062 z"
         style="fill:#0f2e74;fill-rule:evenodd;stroke-width:0.763323;stroke-linecap:round;stroke-linejoin:round;paint-order:markers fill stroke"
         id="path94" /><path
         d="m 224.45762,53.227242 c 0.96622,0.635584 2.06894,1.368051 3.28248,2.197799 1.21355,0.829747 2.5375,1.756889 3.94705,2.780709 1.40955,1.023819 2.90441,2.144268 4.45864,3.362068 1.55424,1.2178 3.16812,2.532773 4.81573,3.944462 1.64761,1.411689 3.32915,2.920336 5.01881,4.525822 1.68967,1.605487 3.38751,3.307989 5.06791,5.107182 0.8402,0.899597 1.67598,1.823401 2.50424,2.771407 0.82826,0.948006 1.64886,1.920214 2.45877,2.916618 0.80991,0.996404 1.60902,2.017038 2.39417,3.061829 0.78514,1.04479 1.55649,2.113356 2.31045,3.206522 0.77112,1.408866 1.48923,2.767778 2.15439,4.076754 0.66516,1.308975 1.27737,2.568166 1.8371,3.779097 0.55973,1.210932 1.06654,2.373424 1.52135,3.48816 0.45482,1.114735 0.85777,2.181999 1.2082,3.202389 0.35042,1.02038 0.64848,1.9939 0.89503,2.92178 0.24655,0.92789 0.44126,1.81016 0.58446,2.64739 0.1432,0.83723 0.23506,1.62921 0.27544,2.37763 0.0404,0.74842 0.0294,1.45314 -0.0326,2.1146 1.06516,0.68345 2.11246,1.37737 3.14089,2.08773 1.02844,0.71035 2.03782,1.43698 3.02721,2.18488 0.23192,-0.79608 0.41213,-1.64799 0.52968,-2.55799 0.11756,-0.90999 0.17287,-1.87787 0.154,-2.90576 -0.0189,-1.02789 -0.11151,-2.11566 -0.28887,-3.26544 -0.17736,-1.14977 -0.43945,-2.36186 -0.79737,-3.6375 -0.35792,-1.27564 -0.81199,-2.61494 -1.37253,-4.020426 -0.56053,-1.405481 -1.22758,-2.876961 -2.01279,-4.416267 -0.78522,-1.539307 -1.68829,-3.146365 -2.72025,-4.823479 -1.03196,-1.677113 -2.19308,-3.424189 -3.49384,-5.24309 -1.05688,-1.430578 -2.12763,-2.800167 -3.20756,-4.111377 -1.07992,-1.311211 -2.16892,-2.564289 -3.26182,-3.761011 -1.09289,-1.196723 -2.18981,-2.337485 -3.28558,-3.424597 -1.09578,-1.087113 -2.19029,-2.120273 -3.27887,-3.102653 -1.08858,-0.98238 -2.1714,-1.913686 -3.2427,-2.796212 -1.0713,-0.882526 -2.13106,-1.716173 -3.175,-2.503723 -1.04393,-0.787551 -2.07187,-1.529285 -3.07836,-2.226738 -1.00649,-0.697453 -1.99176,-1.350954 -2.95073,-1.963187 -1.91793,-1.224468 -3.7308,-2.283329 -5.39812,-3.196188 -1.66732,-0.912859 -3.18924,-1.679479 -4.5253,-2.319755 -2.67213,-1.280552 -4.60063,-2.055062 -5.46375,-2.479435 z"
         style="fill:#0f2e74;fill-rule:evenodd;stroke-width:0.832333;stroke-linecap:round;stroke-linejoin:round;paint-order:markers fill stroke"
         id="path93" /><path
         d="m 224.45762,53.227242 c 0.86312,0.424373 2.79162,1.198883 5.46375,2.479435 1.33606,0.640276 2.85798,1.406896 4.5253,2.319755 1.66732,0.912859 3.48019,1.97172 5.39812,3.196188 0.95897,0.612233 1.94424,1.265734 2.95073,1.963187 1.00649,0.697453 2.03443,1.439187 3.07836,2.226738 1.04394,0.78755 2.1037,1.621197 3.175,2.503723 1.0713,0.882526 2.15412,1.813832 3.2427,2.796212 1.08858,0.98238 2.18309,2.01554 3.27887,3.102653 1.09577,1.087112 2.19269,2.227874 3.28558,3.424597 1.0929,1.196722 2.1819,2.4498 3.26182,3.761011 1.07993,1.31121 2.15068,2.680799 3.20756,4.111377 1.30076,1.818901 2.46188,3.565977 3.49384,5.24309 1.03196,1.677114 1.93503,3.284172 2.72025,4.823479 0.78521,1.539306 1.45226,3.010786 2.01279,4.416267 0.56054,1.405486 1.01461,2.744786 1.37253,4.020426 0.35792,1.27564 0.62001,2.48773 0.79737,3.6375 0.17736,1.14978 0.27,2.23755 0.28887,3.26544 0.0189,1.02789 -0.0364,1.99577 -0.154,2.90576 -0.11755,0.91 -0.29776,1.76191 -0.52968,2.55799 -0.98939,-0.7479 -1.99877,-1.47453 -3.02721,-2.18488 -1.02843,-0.71036 -2.07573,-1.40428 -3.14089,-2.08773 0.0619,-0.66146 0.0729,-1.36618 0.0326,-2.1146 -0.0404,-0.74842 -0.13224,-1.5404 -0.27544,-2.37763 -0.1432,-0.83723 -0.33791,-1.7195 -0.58446,-2.64739 -0.24655,-0.92788 -0.54461,-1.9014 -0.89503,-2.92178 -0.35043,-1.02039 -0.75338,-2.087654 -1.2082,-3.202389 -0.45481,-1.114736 -0.96162,-2.277228 -1.52135,-3.48816 -0.55973,-1.210931 -1.17194,-2.470122 -1.8371,-3.779097 -0.66516,-1.308976 -1.38327,-2.667888 -2.15439,-4.076754 -0.75396,-1.093166 -1.52531,-2.161732 -2.31045,-3.206522 -0.78515,-1.044791 -1.58426,-2.065425 -2.39417,-3.061829 -0.80991,-0.996404 -1.63051,-1.968612 -2.45877,-2.916618 -0.82826,-0.948006 -1.66404,-1.87181 -2.50424,-2.771407 -1.6804,-1.799193 -3.37824,-3.501695 -5.06791,-5.107182 -1.68966,-1.605486 -3.3712,-3.114133 -5.01881,-4.525822 -1.64761,-1.411689 -3.26149,-2.726662 -4.81573,-3.944462 -1.55423,-1.2178 -3.04909,-2.338249 -4.45864,-3.362068 -1.40955,-1.02382 -2.7335,-1.950962 -3.94705,-2.780709 -1.21354,-0.829748 -2.31626,-1.562215 -3.28248,-2.197799 z"
         style="fill:#0f2e74;fill-rule:evenodd;stroke-width:0.832333;stroke-linecap:round;stroke-linejoin:round;paint-order:markers fill stroke"
         id="path92" /><path
         d="m 196.66655,52.918217 c -0.5835,0.493917 -1.15196,1.024579 -1.70532,1.592668 -0.55337,0.568088 -1.09177,1.173396 -1.61489,1.815909 -0.52313,0.642514 -1.03063,1.322478 -1.52342,2.039669 -0.49279,0.717192 -0.97064,1.471822 -1.43299,2.263945 -0.46235,0.792122 -0.9092,1.621947 -1.341,2.489253 -0.43181,0.867307 -0.84838,1.77182 -1.24954,2.714563 -0.40116,0.942744 -0.78714,1.923506 -1.15755,2.94194 -0.37041,1.018433 -0.7255,2.074939 -1.06505,3.169315 -0.91562,0.797482 -1.84989,1.54888 -2.7988,2.261361 -0.94891,0.712481 -1.91257,1.3857 -2.88716,2.027783 -0.97459,0.642084 -1.96014,1.252875 -2.95279,1.839164 -0.99266,0.58629 -1.99207,1.148337 -2.99517,1.693437 -2.0062,1.0902 -4.02578,2.112329 -6.02805,3.125391 -2.00228,1.013062 -3.98729,2.016826 -5.92471,3.06958 0.15263,0.433791 0.35497,0.837032 0.59325,1.210262 0.23827,0.37323 0.51219,0.71674 0.80718,1.031461 0.295,0.314722 0.611,0.600596 0.9338,0.858863 0.32279,0.258267 0.65244,0.488599 0.9741,0.692464 0.64332,0.40773 1.25558,0.709128 1.72082,0.911572 0.46524,0.202444 0.78349,0.306293 0.83923,0.319877 0.78761,0.536179 1.55154,1.018738 2.29185,1.452625 0.74031,0.433887 1.45727,0.818871 2.15077,1.159619 0.69351,0.340748 1.36353,0.637243 2.01073,0.894002 0.6472,0.25676 1.27136,0.47385 1.87275,0.655774 0.6014,0.181924 1.18025,0.328695 1.73633,0.444934 0.55609,0.11624 1.08914,0.201775 1.60042,0.261483 0.51128,0.05971 1.00065,0.09361 1.46761,0.105937 0.46697,0.01233 0.91165,0.0032 1.3348,-0.02274 0.84631,-0.0518 1.6054,-0.170591 2.27945,-0.320394 0.67405,-0.149803 1.26311,-0.33029 1.76889,-0.504879 0.50577,-0.174588 0.92872,-0.343579 1.2702,-0.469738 0.34149,-0.12616 0.60172,-0.209943 0.7829,-0.214458 0.46103,-0.09715 1.58376,-0.189643 3.098,-0.217557 0.75713,-0.01396 1.61196,-0.01146 2.53112,0.01447 0.91915,0.02593 1.90243,0.07519 2.9161,0.156063 1.01366,0.08088 2.05785,0.19329 3.09851,0.344165 1.04067,0.150875 2.07772,0.340264 3.07785,0.576192 1.00014,0.235928 1.96303,0.518177 2.85513,0.854212 0.44605,0.168017 0.87468,0.349836 1.28105,0.545703 0.40638,0.195867 0.7905,0.405888 1.14877,0.631486 -0.24578,-0.331769 -0.50679,-0.645686 -0.7829,-0.942578 -0.27611,-0.296892 -0.5673,-0.576665 -0.87281,-0.839742 -0.30551,-0.263078 -0.62512,-0.509682 -0.95912,-0.740007 -0.33399,-0.230324 -0.68231,-0.444221 -1.04386,-0.642855 -0.7231,-0.397268 -1.50023,-0.732362 -2.32802,-1.00924 -0.82779,-0.276879 -1.70628,-0.495956 -2.63137,-0.660942 -0.92508,-0.164986 -1.89697,-0.275857 -2.91196,-0.337447 -1.015,-0.06159 -2.07284,-0.07362 -3.17035,-0.04031 -1.09752,0.03331 -2.23438,0.1118 -3.40703,0.231511 -1.17265,0.11971 -2.38109,0.280391 -3.62148,0.478007 0.25878,-0.285714 0.5511,-0.552042 0.87333,-0.801502 0.32223,-0.24946 0.67413,-0.481666 1.05316,-0.698665 0.37904,-0.217 0.78519,-0.418867 1.2144,-0.607198 0.42921,-0.188332 0.8817,-0.363126 1.35444,-0.526583 0.94547,-0.326914 1.9712,-0.608174 3.05098,-0.858346 1.07977,-0.250171 2.21349,-0.469572 3.37447,-0.673344 -0.74579,-0.0495 -1.47215,-0.05751 -2.18178,-0.02894 -0.70964,0.02857 -1.40249,0.09379 -2.0805,0.190686 -0.678,0.0969 -1.34123,0.225393 -1.99212,0.380855 -0.65089,0.155462 -1.28942,0.337812 -1.91771,0.542086 -0.6283,0.204274 -1.24653,0.430529 -1.85674,0.67386 -0.61021,0.243332 -1.21255,0.504063 -1.80919,0.776697 -1.19329,0.54527 -2.3639,1.139091 -3.53002,1.743046 -0.28312,0.172418 -0.57092,0.32304 -0.86299,0.452686 -0.29208,0.129646 -0.58831,0.238366 -0.88884,0.327628 -0.60106,0.178525 -1.21866,0.278738 -1.85053,0.310059 -0.63187,0.03132 -1.27815,-0.0061 -1.93683,-0.102836 -0.65869,-0.09677 -1.32976,-0.253125 -2.01125,-0.458887 -0.6815,-0.205761 -1.37347,-0.460902 -2.07378,-0.756543 -0.7003,-0.29564 -1.40878,-0.63146 -2.1239,-0.997872 -1.43023,-0.732823 -2.88618,-1.587994 -4.35167,-2.489253 0.42682,-0.255255 0.88551,-0.485468 1.31516,-0.738457 0.21483,-0.126494 0.42222,-0.258396 0.61495,-0.402559 0.19274,-0.144163 0.37061,-0.3004 0.52607,-0.47439 0.15546,-0.173989 0.28873,-0.365903 0.39171,-0.581876 0.10297,-0.215973 0.17554,-0.45594 0.21084,-0.726054 0.0353,-0.270114 0.0331,-0.57051 -0.0145,-0.906922 -0.0476,-0.336411 -0.14013,-0.709095 -0.28577,-1.123962 3.66953,-1.654689 6.5655,-3.036194 8.88008,-4.212663 1.15728,-0.588234 2.1692,-1.125446 3.05976,-1.619539 0.89055,-0.494093 1.65981,-0.945297 2.33164,-1.362191 0.67182,-0.416894 1.24608,-0.799364 1.74718,-1.156002 0.5011,-0.356637 0.92904,-0.687132 1.30741,-1.000455 0.75675,-0.626648 1.31578,-1.183866 1.86966,-1.738912 0.46239,-1.859699 0.9125,-3.727488 1.40663,-5.565552 0.24706,-0.919032 0.50529,-1.830801 0.78135,-2.730066 0.27605,-0.899265 0.57026,-1.786243 0.88935,-2.656169 0.31908,-0.869925 0.66305,-1.722835 1.03921,-2.553849 0.37616,-0.831014 0.78418,-1.640061 1.23145,-2.422591 0.44726,-0.78253 0.93364,-1.538437 1.46606,-2.262911 0.53241,-0.724474 1.11093,-1.417446 1.74253,-2.074292 z"
         style="fill:#0f2e74;fill-rule:evenodd;stroke-width:0.763323;stroke-linecap:round;stroke-linejoin:round;paint-order:markers fill stroke"
         id="path91" /><path
         d="m 196.45778,39.228097 c -0.0771,1.014309 -0.0915,1.965571 -0.0553,2.85874 0.0361,0.893168 0.12264,1.727878 0.24702,2.508891 0.12437,0.781012 0.28681,1.508587 0.47439,2.186429 0.18757,0.677843 0.40005,1.30615 0.6258,1.889808 0.22575,0.583657 0.46441,1.122631 0.70331,1.621089 0.2389,0.498458 0.47836,0.956484 0.70539,1.378727 0.45406,0.844487 0.85926,1.545348 1.11569,2.138888 l -0.91054,-9.607166 9.11521,25.037749 c 0.25345,-0.179813 0.48776,-0.370641 0.70383,-0.571025 0.21607,-0.200384 0.41412,-0.410516 0.59583,-0.629419 0.36342,-0.437807 0.66078,-0.910686 0.90485,-1.41025 0.24408,-0.499563 0.43458,-1.025552 0.58343,-1.570447 0.14885,-0.544894 0.25609,-1.108268 0.33383,-1.682067 0.0777,-0.5738 0.12633,-1.158318 0.1571,-1.744597 0.0308,-0.586279 0.0438,-1.174666 0.0517,-1.756998 0.0158,-1.164666 0.0104,-2.305025 0.0796,-3.355351 0.0346,-0.525163 0.0875,-1.02771 0.17156,-1.49965 0.0841,-0.47194 0.19934,-0.912875 0.35709,-1.315165 0.15774,-0.402291 0.3584,-0.765889 0.61391,-1.082105 0.12776,-0.158108 0.26909,-0.30419 0.42582,-0.437699 0.15672,-0.13351 0.32857,-0.254361 0.51728,-0.361219 0.1887,-0.106857 0.39435,-0.199866 0.61805,-0.278019 0.2237,-0.07815 0.46537,-0.141741 0.72708,-0.189136 0.52343,-0.09479 1.12597,-0.125828 1.81953,-0.08527 0.69357,0.04056 1.47843,0.152859 2.36626,0.345199 0.88784,0.19234 1.87861,0.464729 2.98484,0.825273 -2.20141,-1.234246 -4.43318,-2.48227 -6.66678,-3.708818 -2.23361,-1.226548 -4.46915,-2.431834 -6.67711,-3.580143 -2.20796,-1.148309 -4.38832,-2.239549 -6.51278,-3.239079 -2.12447,-0.99953 -4.19273,-1.906965 -6.17585,-2.687174 z"
         style="fill:#0f2e74;fill-rule:evenodd;stroke-width:0.763323;stroke-linecap:round;stroke-linejoin:round;paint-order:markers fill stroke"
         id="path90" /><path
         d="m 186.73072,38.929407 c 0.45751,0.829384 0.92762,1.615626 1.40508,2.361096 0.47747,0.745469 0.96266,1.450153 1.45004,2.115633 0.48739,0.665481 0.97724,1.291605 1.46451,1.881022 0.48727,0.589418 0.9719,1.14205 1.44901,1.65933 0.95423,1.034561 1.87772,1.928975 2.7311,2.698544 0.85338,0.769568 1.63668,1.414285 2.3089,1.950268 l -2.61792,-10.498584 c -1.42607,-0.499087 -2.8544,-0.941665 -4.23592,-1.308964 -1.38152,-0.367298 -2.71628,-0.659335 -3.9548,-0.858345 z"
         style="fill:#0f2e74;fill-rule:evenodd;stroke-width:0.763323;stroke-linecap:round;stroke-linejoin:round;paint-order:markers fill stroke"
         id="path89" /></g></g></svg>
